<mxfile host="app.diagrams.net" agent="Mozilla/5.0 (X11; Linux x86_64) AppleWebKit/537.36 (KHTML, like Gecko) Chrome/131.0.0.0 Safari/537.36" version="28.1.2">
  <diagram name="Страница — 1" id="JBa19iTgctlExD0mNZhR">
    <mxGraphModel dx="648" dy="393" grid="1" gridSize="10" guides="0" tooltips="1" connect="1" arrows="1" fold="1" page="0" pageScale="1" pageWidth="827" pageHeight="1169" math="0" shadow="0">
      <root>
        <mxCell id="0" />
        <mxCell id="1" parent="0" />
        <mxCell id="sZ1UL-uAXcp5X_IFKR_6-27" value="&lt;font size=&quot;1&quot;&gt;&lt;b style=&quot;font-size: 16px;&quot;&gt;Declaration&lt;/b&gt;&lt;/font&gt;" style="text;html=1;align=center;verticalAlign=middle;whiteSpace=wrap;rounded=0;strokeColor=default;fontFamily=Helvetica;" parent="1" vertex="1">
          <mxGeometry x="200" y="160" width="120" height="40" as="geometry" />
        </mxCell>
        <mxCell id="sZ1UL-uAXcp5X_IFKR_6-28" value="&lt;font size=&quot;1&quot;&gt;&lt;b style=&quot;font-size: 16px;&quot;&gt;Expression&lt;/b&gt;&lt;/font&gt;" style="text;html=1;align=center;verticalAlign=middle;whiteSpace=wrap;rounded=0;strokeColor=default;fontFamily=Helvetica;" parent="1" vertex="1">
          <mxGeometry x="200" y="240" width="120" height="40" as="geometry" />
        </mxCell>
        <mxCell id="sZ1UL-uAXcp5X_IFKR_6-29" value="&lt;font size=&quot;1&quot;&gt;&lt;b style=&quot;font-size: 16px;&quot;&gt;S&lt;/b&gt;&lt;/font&gt;" style="text;html=1;align=center;verticalAlign=middle;whiteSpace=wrap;rounded=0;strokeColor=default;fontFamily=Helvetica;" parent="1" vertex="1">
          <mxGeometry x="360" y="160" width="40" height="40" as="geometry" />
        </mxCell>
        <mxCell id="sZ1UL-uAXcp5X_IFKR_6-30" value="&lt;font size=&quot;1&quot;&gt;&lt;b style=&quot;font-size: 16px;&quot;&gt;Name&lt;/b&gt;&lt;/font&gt;" style="text;html=1;align=center;verticalAlign=middle;whiteSpace=wrap;rounded=0;strokeColor=default;fontFamily=Helvetica;" parent="1" vertex="1">
          <mxGeometry x="400" y="160" width="80" height="40" as="geometry" />
        </mxCell>
        <mxCell id="sZ1UL-uAXcp5X_IFKR_6-31" value="&lt;font size=&quot;1&quot;&gt;&lt;b style=&quot;font-size: 16px;&quot;&gt;Expression&lt;/b&gt;&lt;/font&gt;" style="text;html=1;align=center;verticalAlign=middle;whiteSpace=wrap;rounded=0;strokeColor=default;fontFamily=Helvetica;" parent="1" vertex="1">
          <mxGeometry x="480" y="160" width="120" height="40" as="geometry" />
        </mxCell>
        <mxCell id="sZ1UL-uAXcp5X_IFKR_6-32" value="&lt;font size=&quot;1&quot;&gt;&lt;b style=&quot;font-size: 16px;&quot;&gt;T&lt;/b&gt;&lt;/font&gt;" style="text;html=1;align=center;verticalAlign=middle;whiteSpace=wrap;rounded=0;strokeColor=default;fontFamily=Helvetica;" parent="1" vertex="1">
          <mxGeometry x="360" y="240" width="40" height="40" as="geometry" />
        </mxCell>
        <mxCell id="sZ1UL-uAXcp5X_IFKR_6-33" value="&lt;font size=&quot;1&quot;&gt;&lt;b style=&quot;font-size: 16px;&quot;&gt;T&lt;/b&gt;&lt;/font&gt;" style="text;html=1;align=center;verticalAlign=middle;whiteSpace=wrap;rounded=0;strokeColor=default;fontFamily=Helvetica;" parent="1" vertex="1">
          <mxGeometry x="480" y="240" width="40" height="40" as="geometry" />
        </mxCell>
        <mxCell id="sZ1UL-uAXcp5X_IFKR_6-34" value="&lt;font&gt;&lt;span style=&quot;font-size: 16px;&quot;&gt;&lt;b&gt;+ OR -&lt;/b&gt;&lt;/span&gt;&lt;/font&gt;" style="text;html=1;align=center;verticalAlign=middle;whiteSpace=wrap;rounded=0;strokeColor=default;fontFamily=Helvetica;" parent="1" vertex="1">
          <mxGeometry x="400" y="240" width="80" height="40" as="geometry" />
        </mxCell>
        <mxCell id="sZ1UL-uAXcp5X_IFKR_6-38" value="&lt;font&gt;&lt;span style=&quot;font-size: 16px;&quot;&gt;&lt;b&gt;...&lt;/b&gt;&lt;/span&gt;&lt;/font&gt;" style="text;html=1;align=center;verticalAlign=middle;whiteSpace=wrap;rounded=0;strokeColor=default;fontFamily=Helvetica;" parent="1" vertex="1">
          <mxGeometry x="520" y="240" width="40" height="40" as="geometry" />
        </mxCell>
        <mxCell id="sZ1UL-uAXcp5X_IFKR_6-40" value="&lt;font size=&quot;1&quot;&gt;&lt;b style=&quot;font-size: 16px;&quot;&gt;T&lt;/b&gt;&lt;/font&gt;" style="text;html=1;align=center;verticalAlign=middle;whiteSpace=wrap;rounded=0;strokeColor=default;fontFamily=Helvetica;" parent="1" vertex="1">
          <mxGeometry x="480" y="320" width="40" height="40" as="geometry" />
        </mxCell>
        <mxCell id="sZ1UL-uAXcp5X_IFKR_6-41" value="&lt;font&gt;&lt;span style=&quot;font-size: 16px;&quot;&gt;&lt;b&gt;P&lt;/b&gt;&lt;/span&gt;&lt;/font&gt;" style="text;html=1;align=center;verticalAlign=middle;whiteSpace=wrap;rounded=0;strokeColor=default;fontFamily=Helvetica;" parent="1" vertex="1">
          <mxGeometry x="360" y="320" width="40" height="40" as="geometry" />
        </mxCell>
        <mxCell id="sZ1UL-uAXcp5X_IFKR_6-42" value="&lt;font&gt;&lt;span style=&quot;font-size: 16px;&quot;&gt;&lt;b&gt;* OR /&lt;/b&gt;&lt;/span&gt;&lt;/font&gt;" style="text;html=1;align=center;verticalAlign=middle;whiteSpace=wrap;rounded=0;strokeColor=default;fontFamily=Helvetica;" parent="1" vertex="1">
          <mxGeometry x="400" y="320" width="80" height="40" as="geometry" />
        </mxCell>
        <mxCell id="sZ1UL-uAXcp5X_IFKR_6-47" value="&lt;font&gt;&lt;span style=&quot;font-size: 16px;&quot;&gt;&lt;b&gt;...&lt;/b&gt;&lt;/span&gt;&lt;/font&gt;" style="text;html=1;align=center;verticalAlign=middle;whiteSpace=wrap;rounded=0;strokeColor=default;fontFamily=Helvetica;" parent="1" vertex="1">
          <mxGeometry x="520" y="320" width="40" height="40" as="geometry" />
        </mxCell>
        <mxCell id="sZ1UL-uAXcp5X_IFKR_6-49" value="&lt;font size=&quot;1&quot;&gt;&lt;b style=&quot;font-size: 16px;&quot;&gt;T&lt;/b&gt;&lt;/font&gt;" style="text;html=1;align=center;verticalAlign=middle;whiteSpace=wrap;rounded=0;strokeColor=default;fontFamily=Helvetica;" parent="1" vertex="1">
          <mxGeometry x="240" y="320" width="40" height="40" as="geometry" />
        </mxCell>
        <mxCell id="sZ1UL-uAXcp5X_IFKR_6-50" value="&lt;font&gt;&lt;span style=&quot;font-size: 16px;&quot;&gt;&lt;b&gt;P&lt;/b&gt;&lt;/span&gt;&lt;/font&gt;" style="text;html=1;align=center;verticalAlign=middle;whiteSpace=wrap;rounded=0;strokeColor=default;fontFamily=Helvetica;" parent="1" vertex="1">
          <mxGeometry x="240" y="400" width="40" height="40" as="geometry" />
        </mxCell>
        <mxCell id="sZ1UL-uAXcp5X_IFKR_6-51" value="&lt;font&gt;&lt;span style=&quot;font-size: 16px;&quot;&gt;&lt;b&gt;(&lt;/b&gt;&lt;/span&gt;&lt;/font&gt;" style="text;html=1;align=center;verticalAlign=middle;whiteSpace=wrap;rounded=0;strokeColor=default;fontFamily=Helvetica;" parent="1" vertex="1">
          <mxGeometry x="360" y="400" width="40" height="40" as="geometry" />
        </mxCell>
        <mxCell id="sZ1UL-uAXcp5X_IFKR_6-52" value="&lt;font size=&quot;1&quot;&gt;&lt;b style=&quot;font-size: 16px;&quot;&gt;Expression&lt;/b&gt;&lt;/font&gt;" style="text;html=1;align=center;verticalAlign=middle;whiteSpace=wrap;rounded=0;strokeColor=default;fontFamily=Helvetica;" parent="1" vertex="1">
          <mxGeometry x="400" y="400" width="120" height="40" as="geometry" />
        </mxCell>
        <mxCell id="sZ1UL-uAXcp5X_IFKR_6-53" value="&lt;font&gt;&lt;span style=&quot;font-size: 16px;&quot;&gt;&lt;b&gt;)&lt;/b&gt;&lt;/span&gt;&lt;/font&gt;" style="text;html=1;align=center;verticalAlign=middle;whiteSpace=wrap;rounded=0;strokeColor=default;fontFamily=Helvetica;" parent="1" vertex="1">
          <mxGeometry x="520" y="400" width="40" height="40" as="geometry" />
        </mxCell>
        <mxCell id="sZ1UL-uAXcp5X_IFKR_6-54" value="&lt;font&gt;&lt;span style=&quot;font-size: 16px;&quot;&gt;&lt;b&gt;+ OR -&lt;/b&gt;&lt;/span&gt;&lt;/font&gt;" style="text;html=1;align=center;verticalAlign=middle;whiteSpace=wrap;rounded=0;strokeColor=default;fontFamily=Helvetica;" parent="1" vertex="1">
          <mxGeometry x="400" y="480" width="80" height="40" as="geometry" />
        </mxCell>
        <mxCell id="sZ1UL-uAXcp5X_IFKR_6-56" value="&lt;font&gt;&lt;span style=&quot;font-size: 16px;&quot;&gt;&lt;b&gt;P&lt;/b&gt;&lt;/span&gt;&lt;/font&gt;" style="text;html=1;align=center;verticalAlign=middle;whiteSpace=wrap;rounded=0;strokeColor=default;fontFamily=Helvetica;" parent="1" vertex="1">
          <mxGeometry x="480" y="480" width="40" height="40" as="geometry" />
        </mxCell>
        <mxCell id="sZ1UL-uAXcp5X_IFKR_6-58" value="&lt;font size=&quot;1&quot;&gt;&lt;b style=&quot;font-size: 16px;&quot;&gt;Name&lt;/b&gt;&lt;/font&gt;" style="text;html=1;align=center;verticalAlign=middle;whiteSpace=wrap;rounded=0;strokeColor=default;fontFamily=Helvetica;" parent="1" vertex="1">
          <mxGeometry x="400" y="560" width="80" height="40" as="geometry" />
        </mxCell>
        <mxCell id="sZ1UL-uAXcp5X_IFKR_6-59" value="&lt;font size=&quot;1&quot;&gt;&lt;b style=&quot;font-size: 16px;&quot;&gt;Value&lt;/b&gt;&lt;/font&gt;" style="text;html=1;align=center;verticalAlign=middle;whiteSpace=wrap;rounded=0;strokeColor=default;fontFamily=Helvetica;" parent="1" vertex="1">
          <mxGeometry x="400" y="640" width="80" height="40" as="geometry" />
        </mxCell>
        <mxCell id="sZ1UL-uAXcp5X_IFKR_6-62" value="" style="endArrow=blockThin;html=1;rounded=0;exitX=1;exitY=0.5;exitDx=0;exitDy=0;entryX=0;entryY=0.5;entryDx=0;entryDy=0;endFill=0;fontFamily=Helvetica;" parent="1" source="sZ1UL-uAXcp5X_IFKR_6-27" target="sZ1UL-uAXcp5X_IFKR_6-29" edge="1">
          <mxGeometry width="50" height="50" relative="1" as="geometry">
            <mxPoint x="360" y="170" as="sourcePoint" />
            <mxPoint x="410" y="120" as="targetPoint" />
          </mxGeometry>
        </mxCell>
        <mxCell id="sZ1UL-uAXcp5X_IFKR_6-63" value="" style="endArrow=blockThin;html=1;rounded=0;exitX=1;exitY=0.5;exitDx=0;exitDy=0;entryX=0;entryY=0.5;entryDx=0;entryDy=0;endFill=0;fontFamily=Helvetica;dashed=1;dashPattern=1 1;" parent="1" edge="1">
          <mxGeometry width="50" height="50" relative="1" as="geometry">
            <mxPoint x="320" y="259.8" as="sourcePoint" />
            <mxPoint x="360" y="259.8" as="targetPoint" />
          </mxGeometry>
        </mxCell>
        <mxCell id="sZ1UL-uAXcp5X_IFKR_6-64" value="" style="endArrow=blockThin;html=1;rounded=0;exitX=1;exitY=0.5;exitDx=0;exitDy=0;entryX=0;entryY=0.5;entryDx=0;entryDy=0;endFill=0;fontFamily=Helvetica;dashed=1;dashPattern=1 1;" parent="1" source="sZ1UL-uAXcp5X_IFKR_6-49" edge="1">
          <mxGeometry width="50" height="50" relative="1" as="geometry">
            <mxPoint x="320" y="339.8" as="sourcePoint" />
            <mxPoint x="360" y="339.8" as="targetPoint" />
          </mxGeometry>
        </mxCell>
        <mxCell id="sZ1UL-uAXcp5X_IFKR_6-65" value="" style="endArrow=blockThin;html=1;rounded=0;entryX=0;entryY=0.5;entryDx=0;entryDy=0;endFill=0;fontFamily=Helvetica;dashed=1;dashPattern=1 1;startArrow=oval;startFill=0;" parent="1" edge="1">
          <mxGeometry width="50" height="50" relative="1" as="geometry">
            <mxPoint x="320" y="420" as="sourcePoint" />
            <mxPoint x="360" y="419.8" as="targetPoint" />
          </mxGeometry>
        </mxCell>
        <mxCell id="sZ1UL-uAXcp5X_IFKR_6-70" value="" style="endArrow=blockThin;html=1;rounded=0;entryX=0;entryY=0.5;entryDx=0;entryDy=0;endFill=0;fontFamily=Helvetica;dashed=1;dashPattern=1 1;startArrow=oval;startFill=0;" parent="1" target="sZ1UL-uAXcp5X_IFKR_6-58" edge="1">
          <mxGeometry width="50" height="50" relative="1" as="geometry">
            <mxPoint x="320" y="580" as="sourcePoint" />
            <mxPoint x="360" y="540" as="targetPoint" />
            <Array as="points" />
          </mxGeometry>
        </mxCell>
        <mxCell id="sZ1UL-uAXcp5X_IFKR_6-71" value="" style="endArrow=blockThin;html=1;rounded=0;entryX=0;entryY=0.5;entryDx=0;entryDy=0;endFill=0;fontFamily=Helvetica;startArrow=oval;startFill=0;dashed=1;dashPattern=1 1;" parent="1" target="sZ1UL-uAXcp5X_IFKR_6-59" edge="1">
          <mxGeometry width="50" height="50" relative="1" as="geometry">
            <mxPoint x="320" y="580" as="sourcePoint" />
            <mxPoint x="360" y="600" as="targetPoint" />
            <Array as="points">
              <mxPoint x="320" y="660" />
            </Array>
          </mxGeometry>
        </mxCell>
        <mxCell id="TpELnIn5vjm38zrWX9I1-1" value="" style="endArrow=oval;html=1;rounded=0;startArrow=oval;startFill=0;endFill=0;dashed=1;dashPattern=1 1;" parent="1" edge="1">
          <mxGeometry width="50" height="50" relative="1" as="geometry">
            <mxPoint x="320" y="500" as="sourcePoint" />
            <mxPoint x="320" y="420" as="targetPoint" />
          </mxGeometry>
        </mxCell>
        <mxCell id="TpELnIn5vjm38zrWX9I1-2" value="" style="endArrow=oval;html=1;rounded=0;startArrow=oval;startFill=0;endFill=0;dashed=1;dashPattern=1 1;" parent="1" edge="1">
          <mxGeometry width="50" height="50" relative="1" as="geometry">
            <mxPoint x="320" y="580" as="sourcePoint" />
            <mxPoint x="320" y="500" as="targetPoint" />
          </mxGeometry>
        </mxCell>
        <mxCell id="TpELnIn5vjm38zrWX9I1-4" value="" style="endArrow=none;html=1;rounded=0;startArrow=oval;startFill=0;endFill=0;dashed=1;dashPattern=1 1;entryX=1;entryY=0.5;entryDx=0;entryDy=0;" parent="1" target="sZ1UL-uAXcp5X_IFKR_6-50" edge="1">
          <mxGeometry width="50" height="50" relative="1" as="geometry">
            <mxPoint x="320" y="420" as="sourcePoint" />
            <mxPoint x="350" y="450" as="targetPoint" />
          </mxGeometry>
        </mxCell>
        <mxCell id="TpELnIn5vjm38zrWX9I1-5" value="" style="endArrow=blockThin;html=1;rounded=0;exitX=0.5;exitY=1;exitDx=0;exitDy=0;entryX=0.5;entryY=0;entryDx=0;entryDy=0;endFill=0;fontFamily=Helvetica;dashed=1;dashPattern=1 1;" parent="1" source="sZ1UL-uAXcp5X_IFKR_6-28" target="sZ1UL-uAXcp5X_IFKR_6-49" edge="1">
          <mxGeometry width="50" height="50" relative="1" as="geometry">
            <mxPoint x="330" y="269.8" as="sourcePoint" />
            <mxPoint x="370" y="269.8" as="targetPoint" />
          </mxGeometry>
        </mxCell>
        <mxCell id="TpELnIn5vjm38zrWX9I1-6" value="" style="endArrow=blockThin;html=1;rounded=0;exitX=0.5;exitY=1;exitDx=0;exitDy=0;entryX=0.5;entryY=0;entryDx=0;entryDy=0;endFill=0;fontFamily=Helvetica;dashed=1;dashPattern=1 1;" parent="1" source="sZ1UL-uAXcp5X_IFKR_6-49" target="sZ1UL-uAXcp5X_IFKR_6-50" edge="1">
          <mxGeometry width="50" height="50" relative="1" as="geometry">
            <mxPoint x="290" y="350" as="sourcePoint" />
            <mxPoint x="370" y="349.8" as="targetPoint" />
          </mxGeometry>
        </mxCell>
        <mxCell id="TpELnIn5vjm38zrWX9I1-7" value="&lt;font size=&quot;1&quot;&gt;&lt;b style=&quot;font-size: 16px;&quot;&gt;Statement&lt;/b&gt;&lt;/font&gt;" style="text;html=1;align=center;verticalAlign=middle;whiteSpace=wrap;rounded=0;strokeColor=default;fontFamily=Helvetica;" parent="1" vertex="1">
          <mxGeometry x="200" y="80" width="120" height="40" as="geometry" />
        </mxCell>
        <mxCell id="TpELnIn5vjm38zrWX9I1-10" value="" style="endArrow=blockThin;html=1;rounded=0;entryX=0;entryY=0.5;entryDx=0;entryDy=0;endFill=0;fontFamily=Helvetica;dashed=1;dashPattern=1 1;startArrow=oval;startFill=0;" parent="1" edge="1">
          <mxGeometry width="50" height="50" relative="1" as="geometry">
            <mxPoint x="160" y="180" as="sourcePoint" />
            <mxPoint x="200" y="260" as="targetPoint" />
            <Array as="points">
              <mxPoint x="160" y="260" />
            </Array>
          </mxGeometry>
        </mxCell>
        <mxCell id="TpELnIn5vjm38zrWX9I1-11" value="" style="endArrow=blockThin;html=1;rounded=0;entryX=0;entryY=0.5;entryDx=0;entryDy=0;endFill=0;fontFamily=Helvetica;dashed=1;dashPattern=1 1;startArrow=oval;startFill=0;" parent="1" target="sZ1UL-uAXcp5X_IFKR_6-27" edge="1">
          <mxGeometry width="50" height="50" relative="1" as="geometry">
            <mxPoint x="160" y="180" as="sourcePoint" />
            <mxPoint x="230" y="220" as="targetPoint" />
          </mxGeometry>
        </mxCell>
        <mxCell id="TpELnIn5vjm38zrWX9I1-12" value="" style="endArrow=none;html=1;rounded=0;dashed=1;dashPattern=1 1;startArrow=oval;startFill=0;entryX=0;entryY=0.5;entryDx=0;entryDy=0;" parent="1" target="TpELnIn5vjm38zrWX9I1-7" edge="1">
          <mxGeometry width="50" height="50" relative="1" as="geometry">
            <mxPoint x="160" y="180" as="sourcePoint" />
            <mxPoint x="130" y="110" as="targetPoint" />
            <Array as="points">
              <mxPoint x="160" y="100" />
            </Array>
          </mxGeometry>
        </mxCell>
        <mxCell id="TpELnIn5vjm38zrWX9I1-14" value="" style="endArrow=blockThin;html=1;rounded=0;entryX=0;entryY=0.5;entryDx=0;entryDy=0;endFill=0;fontFamily=Helvetica;dashed=1;dashPattern=1 1;startArrow=oval;startFill=0;" parent="1" edge="1">
          <mxGeometry width="50" height="50" relative="1" as="geometry">
            <mxPoint x="320" y="500" as="sourcePoint" />
            <mxPoint x="400" y="500" as="targetPoint" />
            <Array as="points" />
          </mxGeometry>
        </mxCell>
      </root>
    </mxGraphModel>
  </diagram>
</mxfile>
